<mxfile host="app.diagrams.net" agent="Mozilla/5.0 (Windows NT 10.0; Win64; x64) AppleWebKit/537.36 (KHTML, like Gecko) Chrome/131.0.0.0 Safari/537.36" version="24.8.4">
  <diagram name="Страница — 1" id="TGtUsXswCx8yC_RqDV6F">
    <mxGraphModel dx="1434" dy="746" grid="1" gridSize="10" guides="1" tooltips="1" connect="1" arrows="1" fold="1" page="1" pageScale="1" pageWidth="2339" pageHeight="3300" math="0" shadow="0">
      <root>
        <mxCell id="0" />
        <mxCell id="1" parent="0" />
        <mxCell id="MNSN4jUZ-0V3lGfAkd76-1" value="User" style="rounded=0;whiteSpace=wrap;html=1;" vertex="1" parent="1">
          <mxGeometry x="550" y="240" width="120" height="60" as="geometry" />
        </mxCell>
        <mxCell id="MNSN4jUZ-0V3lGfAkd76-2" value="товары" style="rounded=0;whiteSpace=wrap;html=1;" vertex="1" parent="1">
          <mxGeometry x="390" y="360" width="120" height="60" as="geometry" />
        </mxCell>
        <mxCell id="MNSN4jUZ-0V3lGfAkd76-3" value="отзывы&amp;nbsp;" style="rounded=0;whiteSpace=wrap;html=1;" vertex="1" parent="1">
          <mxGeometry x="550" y="450" width="120" height="60" as="geometry" />
        </mxCell>
        <mxCell id="MNSN4jUZ-0V3lGfAkd76-4" value="фото/видео" style="rounded=0;whiteSpace=wrap;html=1;" vertex="1" parent="1">
          <mxGeometry x="670" y="550" width="120" height="60" as="geometry" />
        </mxCell>
        <mxCell id="MNSN4jUZ-0V3lGfAkd76-5" value="" style="endArrow=classic;html=1;rounded=0;exitX=0;exitY=0.5;exitDx=0;exitDy=0;entryX=0.675;entryY=0.033;entryDx=0;entryDy=0;entryPerimeter=0;" edge="1" parent="1" source="MNSN4jUZ-0V3lGfAkd76-1" target="MNSN4jUZ-0V3lGfAkd76-2">
          <mxGeometry width="50" height="50" relative="1" as="geometry">
            <mxPoint x="610" y="460" as="sourcePoint" />
            <mxPoint x="660" y="410" as="targetPoint" />
            <Array as="points">
              <mxPoint x="470" y="270" />
            </Array>
          </mxGeometry>
        </mxCell>
        <mxCell id="MNSN4jUZ-0V3lGfAkd76-6" value="покупает" style="edgeLabel;html=1;align=center;verticalAlign=middle;resizable=0;points=[];" vertex="1" connectable="0" parent="MNSN4jUZ-0V3lGfAkd76-5">
          <mxGeometry x="0.3607" y="1" relative="1" as="geometry">
            <mxPoint as="offset" />
          </mxGeometry>
        </mxCell>
        <mxCell id="MNSN4jUZ-0V3lGfAkd76-7" value="" style="endArrow=classic;html=1;rounded=0;exitX=0.667;exitY=0.983;exitDx=0;exitDy=0;exitPerimeter=0;entryX=0.675;entryY=-0.033;entryDx=0;entryDy=0;entryPerimeter=0;" edge="1" parent="1" source="MNSN4jUZ-0V3lGfAkd76-1" target="MNSN4jUZ-0V3lGfAkd76-3">
          <mxGeometry width="50" height="50" relative="1" as="geometry">
            <mxPoint x="610" y="460" as="sourcePoint" />
            <mxPoint x="660" y="410" as="targetPoint" />
          </mxGeometry>
        </mxCell>
        <mxCell id="MNSN4jUZ-0V3lGfAkd76-8" value="оставляет" style="edgeLabel;html=1;align=center;verticalAlign=middle;resizable=0;points=[];" vertex="1" connectable="0" parent="MNSN4jUZ-0V3lGfAkd76-7">
          <mxGeometry x="-0.1005" y="2" relative="1" as="geometry">
            <mxPoint as="offset" />
          </mxGeometry>
        </mxCell>
        <mxCell id="MNSN4jUZ-0V3lGfAkd76-9" value="" style="endArrow=classic;html=1;rounded=0;exitX=0.333;exitY=-0.008;exitDx=0;exitDy=0;exitPerimeter=0;entryX=1;entryY=0.5;entryDx=0;entryDy=0;" edge="1" parent="1" source="MNSN4jUZ-0V3lGfAkd76-4" target="MNSN4jUZ-0V3lGfAkd76-3">
          <mxGeometry width="50" height="50" relative="1" as="geometry">
            <mxPoint x="610" y="460" as="sourcePoint" />
            <mxPoint x="670" y="490" as="targetPoint" />
            <Array as="points">
              <mxPoint x="710" y="480" />
            </Array>
          </mxGeometry>
        </mxCell>
        <mxCell id="MNSN4jUZ-0V3lGfAkd76-10" value="&amp;nbsp;прикреплено" style="edgeLabel;html=1;align=center;verticalAlign=middle;resizable=0;points=[];" vertex="1" connectable="0" parent="MNSN4jUZ-0V3lGfAkd76-9">
          <mxGeometry x="-0.3513" y="-1" relative="1" as="geometry">
            <mxPoint as="offset" />
          </mxGeometry>
        </mxCell>
        <mxCell id="MNSN4jUZ-0V3lGfAkd76-11" value="" style="endArrow=classic;html=1;rounded=0;exitX=1;exitY=0.5;exitDx=0;exitDy=0;entryX=0.342;entryY=0;entryDx=0;entryDy=0;entryPerimeter=0;" edge="1" parent="1" source="MNSN4jUZ-0V3lGfAkd76-2" target="MNSN4jUZ-0V3lGfAkd76-3">
          <mxGeometry width="50" height="50" relative="1" as="geometry">
            <mxPoint x="520" y="390" as="sourcePoint" />
            <mxPoint x="660" y="410" as="targetPoint" />
            <Array as="points">
              <mxPoint x="590" y="390" />
            </Array>
          </mxGeometry>
        </mxCell>
        <mxCell id="MNSN4jUZ-0V3lGfAkd76-12" value="содержит" style="edgeLabel;html=1;align=center;verticalAlign=middle;resizable=0;points=[];" vertex="1" connectable="0" parent="MNSN4jUZ-0V3lGfAkd76-11">
          <mxGeometry x="-0.4286" y="-1" relative="1" as="geometry">
            <mxPoint as="offset" />
          </mxGeometry>
        </mxCell>
        <mxCell id="MNSN4jUZ-0V3lGfAkd76-13" value="" style="endArrow=classic;html=1;rounded=0;exitX=1;exitY=0.5;exitDx=0;exitDy=0;entryX=0.65;entryY=0.008;entryDx=0;entryDy=0;entryPerimeter=0;" edge="1" parent="1" source="MNSN4jUZ-0V3lGfAkd76-1" target="MNSN4jUZ-0V3lGfAkd76-4">
          <mxGeometry width="50" height="50" relative="1" as="geometry">
            <mxPoint x="620" y="540" as="sourcePoint" />
            <mxPoint x="670" y="490" as="targetPoint" />
            <Array as="points">
              <mxPoint x="750" y="270" />
            </Array>
          </mxGeometry>
        </mxCell>
        <mxCell id="MNSN4jUZ-0V3lGfAkd76-14" value="&amp;nbsp; загружает" style="edgeLabel;html=1;align=center;verticalAlign=middle;resizable=0;points=[];" vertex="1" connectable="0" parent="MNSN4jUZ-0V3lGfAkd76-13">
          <mxGeometry x="0.0626" y="-2" relative="1" as="geometry">
            <mxPoint as="offset" />
          </mxGeometry>
        </mxCell>
        <mxCell id="MNSN4jUZ-0V3lGfAkd76-15" value="покупки" style="rounded=0;whiteSpace=wrap;html=1;" vertex="1" parent="1">
          <mxGeometry x="390" y="530" width="120" height="65" as="geometry" />
        </mxCell>
        <mxCell id="MNSN4jUZ-0V3lGfAkd76-16" value="" style="endArrow=classic;html=1;rounded=0;jumpStyle=arc;" edge="1" parent="1">
          <mxGeometry width="50" height="50" relative="1" as="geometry">
            <mxPoint x="550" y="247" as="sourcePoint" />
            <mxPoint x="390" y="550" as="targetPoint" />
            <Array as="points">
              <mxPoint x="340" y="247" />
              <mxPoint x="340" y="550" />
            </Array>
          </mxGeometry>
        </mxCell>
        <mxCell id="MNSN4jUZ-0V3lGfAkd76-21" value="имеет" style="edgeLabel;html=1;align=center;verticalAlign=middle;resizable=0;points=[];" vertex="1" connectable="0" parent="MNSN4jUZ-0V3lGfAkd76-16">
          <mxGeometry x="0.2783" y="2" relative="1" as="geometry">
            <mxPoint as="offset" />
          </mxGeometry>
        </mxCell>
        <mxCell id="MNSN4jUZ-0V3lGfAkd76-18" value="" style="endArrow=classic;html=1;rounded=0;exitX=0.5;exitY=0;exitDx=0;exitDy=0;entryX=0.5;entryY=1;entryDx=0;entryDy=0;" edge="1" parent="1" source="MNSN4jUZ-0V3lGfAkd76-15" target="MNSN4jUZ-0V3lGfAkd76-2">
          <mxGeometry relative="1" as="geometry">
            <mxPoint x="910" y="500" as="sourcePoint" />
            <mxPoint x="1010" y="500" as="targetPoint" />
          </mxGeometry>
        </mxCell>
        <mxCell id="MNSN4jUZ-0V3lGfAkd76-23" value="содержат" style="edgeLabel;html=1;align=center;verticalAlign=middle;resizable=0;points=[];" vertex="1" connectable="0" parent="MNSN4jUZ-0V3lGfAkd76-18">
          <mxGeometry x="0.0364" y="-1" relative="1" as="geometry">
            <mxPoint as="offset" />
          </mxGeometry>
        </mxCell>
        <mxCell id="MNSN4jUZ-0V3lGfAkd76-24" value="User/Пользователь - родительская сущность" style="swimlane;whiteSpace=wrap;html=1;startSize=50;" vertex="1" parent="1">
          <mxGeometry x="50" y="660" width="430" height="230" as="geometry" />
        </mxCell>
        <mxCell id="MNSN4jUZ-0V3lGfAkd76-25" value="Атрибут" style="swimlane;fontStyle=0;childLayout=stackLayout;horizontal=1;startSize=30;horizontalStack=0;resizeParent=1;resizeParentMax=0;resizeLast=0;collapsible=1;marginBottom=0;whiteSpace=wrap;html=1;fillColor=#dae8fc;strokeColor=#6c8ebf;" vertex="1" parent="MNSN4jUZ-0V3lGfAkd76-24">
          <mxGeometry y="50" width="190" height="180" as="geometry" />
        </mxCell>
        <mxCell id="MNSN4jUZ-0V3lGfAkd76-26" value="user_id&amp;nbsp;" style="text;strokeColor=none;fillColor=none;align=left;verticalAlign=middle;spacingLeft=4;spacingRight=4;overflow=hidden;points=[[0,0.5],[1,0.5]];portConstraint=eastwest;rotatable=0;whiteSpace=wrap;html=1;" vertex="1" parent="MNSN4jUZ-0V3lGfAkd76-25">
          <mxGeometry y="30" width="190" height="30" as="geometry" />
        </mxCell>
        <mxCell id="MNSN4jUZ-0V3lGfAkd76-27" value="name" style="text;strokeColor=none;fillColor=none;align=left;verticalAlign=middle;spacingLeft=4;spacingRight=4;overflow=hidden;points=[[0,0.5],[1,0.5]];portConstraint=eastwest;rotatable=0;whiteSpace=wrap;html=1;" vertex="1" parent="MNSN4jUZ-0V3lGfAkd76-25">
          <mxGeometry y="60" width="190" height="30" as="geometry" />
        </mxCell>
        <mxCell id="MNSN4jUZ-0V3lGfAkd76-28" value="last_name" style="text;strokeColor=none;fillColor=none;align=left;verticalAlign=middle;spacingLeft=4;spacingRight=4;overflow=hidden;points=[[0,0.5],[1,0.5]];portConstraint=eastwest;rotatable=0;whiteSpace=wrap;html=1;" vertex="1" parent="MNSN4jUZ-0V3lGfAkd76-25">
          <mxGeometry y="90" width="190" height="50" as="geometry" />
        </mxCell>
        <mxCell id="MNSN4jUZ-0V3lGfAkd76-69" value="email" style="text;strokeColor=none;fillColor=none;align=left;verticalAlign=middle;spacingLeft=4;spacingRight=4;overflow=hidden;points=[[0,0.5],[1,0.5]];portConstraint=eastwest;rotatable=0;whiteSpace=wrap;html=1;" vertex="1" parent="MNSN4jUZ-0V3lGfAkd76-25">
          <mxGeometry y="140" width="190" height="40" as="geometry" />
        </mxCell>
        <mxCell id="MNSN4jUZ-0V3lGfAkd76-29" value="Описание" style="swimlane;fontStyle=0;childLayout=stackLayout;horizontal=1;startSize=30;horizontalStack=0;resizeParent=1;resizeParentMax=0;resizeLast=0;collapsible=1;marginBottom=0;whiteSpace=wrap;html=1;fillColor=#dae8fc;strokeColor=#6c8ebf;" vertex="1" parent="MNSN4jUZ-0V3lGfAkd76-24">
          <mxGeometry x="190" y="50" width="240" height="180" as="geometry" />
        </mxCell>
        <mxCell id="MNSN4jUZ-0V3lGfAkd76-30" value="Уникальный идентификатор пользователя" style="text;strokeColor=none;fillColor=none;align=left;verticalAlign=middle;spacingLeft=4;spacingRight=4;overflow=hidden;points=[[0,0.5],[1,0.5]];portConstraint=eastwest;rotatable=0;whiteSpace=wrap;html=1;" vertex="1" parent="MNSN4jUZ-0V3lGfAkd76-29">
          <mxGeometry y="30" width="240" height="40" as="geometry" />
        </mxCell>
        <mxCell id="MNSN4jUZ-0V3lGfAkd76-31" value="Имя пользователя" style="text;strokeColor=none;fillColor=none;align=left;verticalAlign=middle;spacingLeft=4;spacingRight=4;overflow=hidden;points=[[0,0.5],[1,0.5]];portConstraint=eastwest;rotatable=0;whiteSpace=wrap;html=1;" vertex="1" parent="MNSN4jUZ-0V3lGfAkd76-29">
          <mxGeometry y="70" width="240" height="30" as="geometry" />
        </mxCell>
        <mxCell id="MNSN4jUZ-0V3lGfAkd76-32" value="Фамилия пользователя" style="text;strokeColor=none;fillColor=none;align=left;verticalAlign=middle;spacingLeft=4;spacingRight=4;overflow=hidden;points=[[0,0.5],[1,0.5]];portConstraint=eastwest;rotatable=0;whiteSpace=wrap;html=1;" vertex="1" parent="MNSN4jUZ-0V3lGfAkd76-29">
          <mxGeometry y="100" width="240" height="40" as="geometry" />
        </mxCell>
        <mxCell id="MNSN4jUZ-0V3lGfAkd76-70" value="электронная почта пользователя" style="text;strokeColor=none;fillColor=none;align=left;verticalAlign=middle;spacingLeft=4;spacingRight=4;overflow=hidden;points=[[0,0.5],[1,0.5]];portConstraint=eastwest;rotatable=0;whiteSpace=wrap;html=1;" vertex="1" parent="MNSN4jUZ-0V3lGfAkd76-29">
          <mxGeometry y="140" width="240" height="40" as="geometry" />
        </mxCell>
        <mxCell id="MNSN4jUZ-0V3lGfAkd76-33" value="Product/Товары - Родительская сущность&amp;nbsp;" style="swimlane;whiteSpace=wrap;html=1;startSize=50;" vertex="1" parent="1">
          <mxGeometry x="980" y="940" width="430" height="240" as="geometry" />
        </mxCell>
        <mxCell id="MNSN4jUZ-0V3lGfAkd76-34" value="Атрибут" style="swimlane;fontStyle=0;childLayout=stackLayout;horizontal=1;startSize=30;horizontalStack=0;resizeParent=1;resizeParentMax=0;resizeLast=0;collapsible=1;marginBottom=0;whiteSpace=wrap;html=1;fillColor=#dae8fc;strokeColor=#6c8ebf;" vertex="1" parent="MNSN4jUZ-0V3lGfAkd76-33">
          <mxGeometry y="50" width="190" height="190" as="geometry" />
        </mxCell>
        <mxCell id="MNSN4jUZ-0V3lGfAkd76-35" value="product_id" style="text;strokeColor=none;fillColor=none;align=left;verticalAlign=middle;spacingLeft=4;spacingRight=4;overflow=hidden;points=[[0,0.5],[1,0.5]];portConstraint=eastwest;rotatable=0;whiteSpace=wrap;html=1;" vertex="1" parent="MNSN4jUZ-0V3lGfAkd76-34">
          <mxGeometry y="30" width="190" height="30" as="geometry" />
        </mxCell>
        <mxCell id="MNSN4jUZ-0V3lGfAkd76-36" value="title" style="text;strokeColor=none;fillColor=none;align=left;verticalAlign=middle;spacingLeft=4;spacingRight=4;overflow=hidden;points=[[0,0.5],[1,0.5]];portConstraint=eastwest;rotatable=0;whiteSpace=wrap;html=1;" vertex="1" parent="MNSN4jUZ-0V3lGfAkd76-34">
          <mxGeometry y="60" width="190" height="30" as="geometry" />
        </mxCell>
        <mxCell id="MNSN4jUZ-0V3lGfAkd76-37" value="description" style="text;strokeColor=none;fillColor=none;align=left;verticalAlign=middle;spacingLeft=4;spacingRight=4;overflow=hidden;points=[[0,0.5],[1,0.5]];portConstraint=eastwest;rotatable=0;whiteSpace=wrap;html=1;" vertex="1" parent="MNSN4jUZ-0V3lGfAkd76-34">
          <mxGeometry y="90" width="190" height="60" as="geometry" />
        </mxCell>
        <mxCell id="MNSN4jUZ-0V3lGfAkd76-76" value="price" style="text;strokeColor=none;fillColor=none;align=left;verticalAlign=middle;spacingLeft=4;spacingRight=4;overflow=hidden;points=[[0,0.5],[1,0.5]];portConstraint=eastwest;rotatable=0;whiteSpace=wrap;html=1;" vertex="1" parent="MNSN4jUZ-0V3lGfAkd76-34">
          <mxGeometry y="150" width="190" height="40" as="geometry" />
        </mxCell>
        <mxCell id="MNSN4jUZ-0V3lGfAkd76-38" value="Описание" style="swimlane;fontStyle=0;childLayout=stackLayout;horizontal=1;startSize=30;horizontalStack=0;resizeParent=1;resizeParentMax=0;resizeLast=0;collapsible=1;marginBottom=0;whiteSpace=wrap;html=1;fillColor=#dae8fc;strokeColor=#6c8ebf;" vertex="1" parent="MNSN4jUZ-0V3lGfAkd76-33">
          <mxGeometry x="190" y="50" width="240" height="190" as="geometry" />
        </mxCell>
        <mxCell id="MNSN4jUZ-0V3lGfAkd76-40" value="Уникальный идентификатор товара" style="text;strokeColor=none;fillColor=none;align=left;verticalAlign=middle;spacingLeft=4;spacingRight=4;overflow=hidden;points=[[0,0.5],[1,0.5]];portConstraint=eastwest;rotatable=0;whiteSpace=wrap;html=1;" vertex="1" parent="MNSN4jUZ-0V3lGfAkd76-38">
          <mxGeometry y="30" width="240" height="30" as="geometry" />
        </mxCell>
        <mxCell id="MNSN4jUZ-0V3lGfAkd76-41" value="Название товара" style="text;strokeColor=none;fillColor=none;align=left;verticalAlign=middle;spacingLeft=4;spacingRight=4;overflow=hidden;points=[[0,0.5],[1,0.5]];portConstraint=eastwest;rotatable=0;whiteSpace=wrap;html=1;" vertex="1" parent="MNSN4jUZ-0V3lGfAkd76-38">
          <mxGeometry y="60" width="240" height="40" as="geometry" />
        </mxCell>
        <mxCell id="MNSN4jUZ-0V3lGfAkd76-78" value="Описание товара&amp;nbsp;" style="text;strokeColor=none;fillColor=none;align=left;verticalAlign=middle;spacingLeft=4;spacingRight=4;overflow=hidden;points=[[0,0.5],[1,0.5]];portConstraint=eastwest;rotatable=0;whiteSpace=wrap;html=1;" vertex="1" parent="MNSN4jUZ-0V3lGfAkd76-38">
          <mxGeometry y="100" width="240" height="50" as="geometry" />
        </mxCell>
        <mxCell id="MNSN4jUZ-0V3lGfAkd76-77" value="Цена товара&amp;nbsp;" style="text;strokeColor=none;fillColor=none;align=left;verticalAlign=middle;spacingLeft=4;spacingRight=4;overflow=hidden;points=[[0,0.5],[1,0.5]];portConstraint=eastwest;rotatable=0;whiteSpace=wrap;html=1;" vertex="1" parent="MNSN4jUZ-0V3lGfAkd76-38">
          <mxGeometry y="150" width="240" height="40" as="geometry" />
        </mxCell>
        <mxCell id="MNSN4jUZ-0V3lGfAkd76-42" value="MediaFile/фото/видео" style="swimlane;whiteSpace=wrap;html=1;startSize=50;" vertex="1" parent="1">
          <mxGeometry x="980" y="660" width="430" height="240" as="geometry" />
        </mxCell>
        <mxCell id="MNSN4jUZ-0V3lGfAkd76-43" value="Атрибут" style="swimlane;fontStyle=0;childLayout=stackLayout;horizontal=1;startSize=30;horizontalStack=0;resizeParent=1;resizeParentMax=0;resizeLast=0;collapsible=1;marginBottom=0;whiteSpace=wrap;html=1;fillColor=#dae8fc;strokeColor=#6c8ebf;" vertex="1" parent="MNSN4jUZ-0V3lGfAkd76-42">
          <mxGeometry y="50" width="190" height="190" as="geometry" />
        </mxCell>
        <mxCell id="MNSN4jUZ-0V3lGfAkd76-44" value="media_id&amp;nbsp;" style="text;strokeColor=none;fillColor=none;align=left;verticalAlign=middle;spacingLeft=4;spacingRight=4;overflow=hidden;points=[[0,0.5],[1,0.5]];portConstraint=eastwest;rotatable=0;whiteSpace=wrap;html=1;" vertex="1" parent="MNSN4jUZ-0V3lGfAkd76-43">
          <mxGeometry y="30" width="190" height="30" as="geometry" />
        </mxCell>
        <mxCell id="MNSN4jUZ-0V3lGfAkd76-45" value="URL" style="text;strokeColor=none;fillColor=none;align=left;verticalAlign=middle;spacingLeft=4;spacingRight=4;overflow=hidden;points=[[0,0.5],[1,0.5]];portConstraint=eastwest;rotatable=0;whiteSpace=wrap;html=1;" vertex="1" parent="MNSN4jUZ-0V3lGfAkd76-43">
          <mxGeometry y="60" width="190" height="50" as="geometry" />
        </mxCell>
        <mxCell id="MNSN4jUZ-0V3lGfAkd76-46" value="type" style="text;strokeColor=none;fillColor=none;align=left;verticalAlign=middle;spacingLeft=4;spacingRight=4;overflow=hidden;points=[[0,0.5],[1,0.5]];portConstraint=eastwest;rotatable=0;whiteSpace=wrap;html=1;" vertex="1" parent="MNSN4jUZ-0V3lGfAkd76-43">
          <mxGeometry y="110" width="190" height="50" as="geometry" />
        </mxCell>
        <mxCell id="MNSN4jUZ-0V3lGfAkd76-79" value="review_id" style="text;strokeColor=none;fillColor=none;align=left;verticalAlign=middle;spacingLeft=4;spacingRight=4;overflow=hidden;points=[[0,0.5],[1,0.5]];portConstraint=eastwest;rotatable=0;whiteSpace=wrap;html=1;" vertex="1" parent="MNSN4jUZ-0V3lGfAkd76-43">
          <mxGeometry y="160" width="190" height="30" as="geometry" />
        </mxCell>
        <mxCell id="MNSN4jUZ-0V3lGfAkd76-47" value="Описание" style="swimlane;fontStyle=0;childLayout=stackLayout;horizontal=1;startSize=30;horizontalStack=0;resizeParent=1;resizeParentMax=0;resizeLast=0;collapsible=1;marginBottom=0;whiteSpace=wrap;html=1;fillColor=#dae8fc;strokeColor=#6c8ebf;" vertex="1" parent="MNSN4jUZ-0V3lGfAkd76-42">
          <mxGeometry x="190" y="50" width="240" height="190" as="geometry" />
        </mxCell>
        <mxCell id="MNSN4jUZ-0V3lGfAkd76-48" value="Уникальный идентификатор файла&amp;nbsp;" style="text;strokeColor=none;fillColor=none;align=left;verticalAlign=middle;spacingLeft=4;spacingRight=4;overflow=hidden;points=[[0,0.5],[1,0.5]];portConstraint=eastwest;rotatable=0;whiteSpace=wrap;html=1;" vertex="1" parent="MNSN4jUZ-0V3lGfAkd76-47">
          <mxGeometry y="30" width="240" height="30" as="geometry" />
        </mxCell>
        <mxCell id="MNSN4jUZ-0V3lGfAkd76-49" value="&lt;span style=&quot;color: rgb(71, 71, 71); font-family: Arial, sans-serif; font-size: 14px; background-color: rgb(255, 255, 255);&quot;&gt;указатель местонахождения файла&lt;/span&gt;" style="text;strokeColor=none;fillColor=none;align=left;verticalAlign=middle;spacingLeft=4;spacingRight=4;overflow=hidden;points=[[0,0.5],[1,0.5]];portConstraint=eastwest;rotatable=0;whiteSpace=wrap;html=1;" vertex="1" parent="MNSN4jUZ-0V3lGfAkd76-47">
          <mxGeometry y="60" width="240" height="40" as="geometry" />
        </mxCell>
        <mxCell id="MNSN4jUZ-0V3lGfAkd76-80" value="Тип файла" style="text;strokeColor=none;fillColor=none;align=left;verticalAlign=middle;spacingLeft=4;spacingRight=4;overflow=hidden;points=[[0,0.5],[1,0.5]];portConstraint=eastwest;rotatable=0;whiteSpace=wrap;html=1;" vertex="1" parent="MNSN4jUZ-0V3lGfAkd76-47">
          <mxGeometry y="100" width="240" height="50" as="geometry" />
        </mxCell>
        <mxCell id="MNSN4jUZ-0V3lGfAkd76-50" value="идентификатор отзыва" style="text;strokeColor=none;fillColor=none;align=left;verticalAlign=middle;spacingLeft=4;spacingRight=4;overflow=hidden;points=[[0,0.5],[1,0.5]];portConstraint=eastwest;rotatable=0;whiteSpace=wrap;html=1;" vertex="1" parent="MNSN4jUZ-0V3lGfAkd76-47">
          <mxGeometry y="150" width="240" height="40" as="geometry" />
        </mxCell>
        <mxCell id="MNSN4jUZ-0V3lGfAkd76-51" value="Review/Отзывы - дочерняя сущность&amp;nbsp;" style="swimlane;whiteSpace=wrap;html=1;startSize=50;" vertex="1" parent="1">
          <mxGeometry x="515" y="660" width="430" height="300" as="geometry" />
        </mxCell>
        <mxCell id="MNSN4jUZ-0V3lGfAkd76-52" value="Атрибут" style="swimlane;fontStyle=0;childLayout=stackLayout;horizontal=1;startSize=30;horizontalStack=0;resizeParent=1;resizeParentMax=0;resizeLast=0;collapsible=1;marginBottom=0;whiteSpace=wrap;html=1;fillColor=#dae8fc;strokeColor=#6c8ebf;" vertex="1" parent="MNSN4jUZ-0V3lGfAkd76-51">
          <mxGeometry y="50" width="190" height="250" as="geometry" />
        </mxCell>
        <mxCell id="MNSN4jUZ-0V3lGfAkd76-53" value="review_id&amp;nbsp;" style="text;strokeColor=none;fillColor=none;align=left;verticalAlign=middle;spacingLeft=4;spacingRight=4;overflow=hidden;points=[[0,0.5],[1,0.5]];portConstraint=eastwest;rotatable=0;whiteSpace=wrap;html=1;" vertex="1" parent="MNSN4jUZ-0V3lGfAkd76-52">
          <mxGeometry y="30" width="190" height="30" as="geometry" />
        </mxCell>
        <mxCell id="MNSN4jUZ-0V3lGfAkd76-54" value="content" style="text;strokeColor=none;fillColor=none;align=left;verticalAlign=middle;spacingLeft=4;spacingRight=4;overflow=hidden;points=[[0,0.5],[1,0.5]];portConstraint=eastwest;rotatable=0;whiteSpace=wrap;html=1;" vertex="1" parent="MNSN4jUZ-0V3lGfAkd76-52">
          <mxGeometry y="60" width="190" height="30" as="geometry" />
        </mxCell>
        <mxCell id="MNSN4jUZ-0V3lGfAkd76-83" value="reting" style="text;strokeColor=none;fillColor=none;align=left;verticalAlign=middle;spacingLeft=4;spacingRight=4;overflow=hidden;points=[[0,0.5],[1,0.5]];portConstraint=eastwest;rotatable=0;whiteSpace=wrap;html=1;fontFamily=Helvetica;fontSize=12;fontColor=default;" vertex="1" parent="MNSN4jUZ-0V3lGfAkd76-52">
          <mxGeometry y="90" width="190" height="40" as="geometry" />
        </mxCell>
        <mxCell id="MNSN4jUZ-0V3lGfAkd76-82" value="date" style="text;strokeColor=none;fillColor=none;align=left;verticalAlign=middle;spacingLeft=4;spacingRight=4;overflow=hidden;points=[[0,0.5],[1,0.5]];portConstraint=eastwest;rotatable=0;whiteSpace=wrap;html=1;fontFamily=Helvetica;fontSize=12;fontColor=default;" vertex="1" parent="MNSN4jUZ-0V3lGfAkd76-52">
          <mxGeometry y="130" width="190" height="40" as="geometry" />
        </mxCell>
        <mxCell id="MNSN4jUZ-0V3lGfAkd76-81" value="user_id" style="text;strokeColor=none;fillColor=none;align=left;verticalAlign=middle;spacingLeft=4;spacingRight=4;overflow=hidden;points=[[0,0.5],[1,0.5]];portConstraint=eastwest;rotatable=0;whiteSpace=wrap;html=1;fontFamily=Helvetica;fontSize=12;fontColor=default;" vertex="1" parent="MNSN4jUZ-0V3lGfAkd76-52">
          <mxGeometry y="170" width="190" height="40" as="geometry" />
        </mxCell>
        <mxCell id="MNSN4jUZ-0V3lGfAkd76-55" value="product_id" style="text;strokeColor=none;fillColor=none;align=left;verticalAlign=middle;spacingLeft=4;spacingRight=4;overflow=hidden;points=[[0,0.5],[1,0.5]];portConstraint=eastwest;rotatable=0;whiteSpace=wrap;html=1;fontFamily=Helvetica;fontSize=12;fontColor=default;" vertex="1" parent="MNSN4jUZ-0V3lGfAkd76-52">
          <mxGeometry y="210" width="190" height="40" as="geometry" />
        </mxCell>
        <mxCell id="MNSN4jUZ-0V3lGfAkd76-56" value="Описание" style="swimlane;fontStyle=0;childLayout=stackLayout;horizontal=1;startSize=30;horizontalStack=0;resizeParent=1;resizeParentMax=0;resizeLast=0;collapsible=1;marginBottom=0;whiteSpace=wrap;html=1;fillColor=#dae8fc;strokeColor=#6c8ebf;" vertex="1" parent="MNSN4jUZ-0V3lGfAkd76-51">
          <mxGeometry x="190" y="50" width="240" height="250" as="geometry" />
        </mxCell>
        <mxCell id="MNSN4jUZ-0V3lGfAkd76-57" value="Уникальный идентификатор отзыва&amp;nbsp;" style="text;strokeColor=none;fillColor=none;align=left;verticalAlign=middle;spacingLeft=4;spacingRight=4;overflow=hidden;points=[[0,0.5],[1,0.5]];portConstraint=eastwest;rotatable=0;whiteSpace=wrap;html=1;" vertex="1" parent="MNSN4jUZ-0V3lGfAkd76-56">
          <mxGeometry y="30" width="240" height="30" as="geometry" />
        </mxCell>
        <mxCell id="MNSN4jUZ-0V3lGfAkd76-58" value="Отзыв о товаре" style="text;strokeColor=none;fillColor=none;align=left;verticalAlign=middle;spacingLeft=4;spacingRight=4;overflow=hidden;points=[[0,0.5],[1,0.5]];portConstraint=eastwest;rotatable=0;whiteSpace=wrap;html=1;" vertex="1" parent="MNSN4jUZ-0V3lGfAkd76-56">
          <mxGeometry y="60" width="240" height="30" as="geometry" />
        </mxCell>
        <mxCell id="MNSN4jUZ-0V3lGfAkd76-86" value="оценка товара" style="text;strokeColor=none;fillColor=none;align=left;verticalAlign=middle;spacingLeft=4;spacingRight=4;overflow=hidden;points=[[0,0.5],[1,0.5]];portConstraint=eastwest;rotatable=0;whiteSpace=wrap;html=1;fontFamily=Helvetica;fontSize=12;fontColor=default;" vertex="1" parent="MNSN4jUZ-0V3lGfAkd76-56">
          <mxGeometry y="90" width="240" height="40" as="geometry" />
        </mxCell>
        <mxCell id="MNSN4jUZ-0V3lGfAkd76-85" value="дата отзыва" style="text;strokeColor=none;fillColor=none;align=left;verticalAlign=middle;spacingLeft=4;spacingRight=4;overflow=hidden;points=[[0,0.5],[1,0.5]];portConstraint=eastwest;rotatable=0;whiteSpace=wrap;html=1;fontFamily=Helvetica;fontSize=12;fontColor=default;" vertex="1" parent="MNSN4jUZ-0V3lGfAkd76-56">
          <mxGeometry y="130" width="240" height="40" as="geometry" />
        </mxCell>
        <mxCell id="MNSN4jUZ-0V3lGfAkd76-84" value="идентификатор пользователя оставившего отзыв" style="text;strokeColor=none;fillColor=none;align=left;verticalAlign=middle;spacingLeft=4;spacingRight=4;overflow=hidden;points=[[0,0.5],[1,0.5]];portConstraint=eastwest;rotatable=0;whiteSpace=wrap;html=1;fontFamily=Helvetica;fontSize=12;fontColor=default;" vertex="1" parent="MNSN4jUZ-0V3lGfAkd76-56">
          <mxGeometry y="170" width="240" height="40" as="geometry" />
        </mxCell>
        <mxCell id="MNSN4jUZ-0V3lGfAkd76-59" value="идентификатор продукта" style="text;strokeColor=none;fillColor=none;align=left;verticalAlign=middle;spacingLeft=4;spacingRight=4;overflow=hidden;points=[[0,0.5],[1,0.5]];portConstraint=eastwest;rotatable=0;whiteSpace=wrap;html=1;" vertex="1" parent="MNSN4jUZ-0V3lGfAkd76-56">
          <mxGeometry y="210" width="240" height="40" as="geometry" />
        </mxCell>
        <mxCell id="MNSN4jUZ-0V3lGfAkd76-60" value="Покупки/Purchases - дочерняя сущность&amp;nbsp;" style="swimlane;whiteSpace=wrap;html=1;startSize=50;" vertex="1" parent="1">
          <mxGeometry x="50" y="920" width="430" height="290" as="geometry" />
        </mxCell>
        <mxCell id="MNSN4jUZ-0V3lGfAkd76-61" value="Атрибут" style="swimlane;fontStyle=0;childLayout=stackLayout;horizontal=1;startSize=30;horizontalStack=0;resizeParent=1;resizeParentMax=0;resizeLast=0;collapsible=1;marginBottom=0;whiteSpace=wrap;html=1;fillColor=#dae8fc;strokeColor=#6c8ebf;" vertex="1" parent="MNSN4jUZ-0V3lGfAkd76-60">
          <mxGeometry y="50" width="190" height="240" as="geometry" />
        </mxCell>
        <mxCell id="MNSN4jUZ-0V3lGfAkd76-62" value="purchases_id" style="text;strokeColor=none;fillColor=none;align=left;verticalAlign=middle;spacingLeft=4;spacingRight=4;overflow=hidden;points=[[0,0.5],[1,0.5]];portConstraint=eastwest;rotatable=0;whiteSpace=wrap;html=1;" vertex="1" parent="MNSN4jUZ-0V3lGfAkd76-61">
          <mxGeometry y="30" width="190" height="40" as="geometry" />
        </mxCell>
        <mxCell id="MNSN4jUZ-0V3lGfAkd76-63" value="user_id" style="text;strokeColor=none;fillColor=none;align=left;verticalAlign=middle;spacingLeft=4;spacingRight=4;overflow=hidden;points=[[0,0.5],[1,0.5]];portConstraint=eastwest;rotatable=0;whiteSpace=wrap;html=1;" vertex="1" parent="MNSN4jUZ-0V3lGfAkd76-61">
          <mxGeometry y="70" width="190" height="50" as="geometry" />
        </mxCell>
        <mxCell id="MNSN4jUZ-0V3lGfAkd76-64" value="poduct_id" style="text;strokeColor=none;fillColor=none;align=left;verticalAlign=middle;spacingLeft=4;spacingRight=4;overflow=hidden;points=[[0,0.5],[1,0.5]];portConstraint=eastwest;rotatable=0;whiteSpace=wrap;html=1;" vertex="1" parent="MNSN4jUZ-0V3lGfAkd76-61">
          <mxGeometry y="120" width="190" height="40" as="geometry" />
        </mxCell>
        <mxCell id="MNSN4jUZ-0V3lGfAkd76-71" value="purchases_date" style="text;strokeColor=none;fillColor=none;align=left;verticalAlign=middle;spacingLeft=4;spacingRight=4;overflow=hidden;points=[[0,0.5],[1,0.5]];portConstraint=eastwest;rotatable=0;whiteSpace=wrap;html=1;" vertex="1" parent="MNSN4jUZ-0V3lGfAkd76-61">
          <mxGeometry y="160" width="190" height="40" as="geometry" />
        </mxCell>
        <mxCell id="MNSN4jUZ-0V3lGfAkd76-72" value="quantity" style="text;strokeColor=none;fillColor=none;align=left;verticalAlign=middle;spacingLeft=4;spacingRight=4;overflow=hidden;points=[[0,0.5],[1,0.5]];portConstraint=eastwest;rotatable=0;whiteSpace=wrap;html=1;" vertex="1" parent="MNSN4jUZ-0V3lGfAkd76-61">
          <mxGeometry y="200" width="190" height="40" as="geometry" />
        </mxCell>
        <mxCell id="MNSN4jUZ-0V3lGfAkd76-65" value="Описание" style="swimlane;fontStyle=0;childLayout=stackLayout;horizontal=1;startSize=30;horizontalStack=0;resizeParent=1;resizeParentMax=0;resizeLast=0;collapsible=1;marginBottom=0;whiteSpace=wrap;html=1;fillColor=#dae8fc;strokeColor=#6c8ebf;" vertex="1" parent="MNSN4jUZ-0V3lGfAkd76-60">
          <mxGeometry x="190" y="50" width="240" height="240" as="geometry" />
        </mxCell>
        <mxCell id="MNSN4jUZ-0V3lGfAkd76-67" value="&lt;br&gt;&lt;span style=&quot;color: rgb(0, 0, 0); font-family: Helvetica; font-size: 12px; font-style: normal; font-variant-ligatures: normal; font-variant-caps: normal; font-weight: 400; letter-spacing: normal; orphans: 2; text-align: left; text-indent: 0px; text-transform: none; widows: 2; word-spacing: 0px; -webkit-text-stroke-width: 0px; white-space: normal; background-color: rgb(251, 251, 251); text-decoration-thickness: initial; text-decoration-style: initial; text-decoration-color: initial; display: inline !important; float: none;&quot;&gt;Уникальный идентификатор покупки&lt;/span&gt;&lt;div&gt;&lt;br/&gt;&lt;/div&gt;" style="text;strokeColor=none;fillColor=none;align=left;verticalAlign=middle;spacingLeft=4;spacingRight=4;overflow=hidden;points=[[0,0.5],[1,0.5]];portConstraint=eastwest;rotatable=0;whiteSpace=wrap;html=1;" vertex="1" parent="MNSN4jUZ-0V3lGfAkd76-65">
          <mxGeometry y="30" width="240" height="40" as="geometry" />
        </mxCell>
        <mxCell id="MNSN4jUZ-0V3lGfAkd76-68" value="идентификатор пользователя, которому принадлежит покупка" style="text;strokeColor=none;fillColor=none;align=left;verticalAlign=middle;spacingLeft=4;spacingRight=4;overflow=hidden;points=[[0,0.5],[1,0.5]];portConstraint=eastwest;rotatable=0;whiteSpace=wrap;html=1;" vertex="1" parent="MNSN4jUZ-0V3lGfAkd76-65">
          <mxGeometry y="70" width="240" height="50" as="geometry" />
        </mxCell>
        <mxCell id="MNSN4jUZ-0V3lGfAkd76-74" value="идентификатор продукта, который купили" style="text;strokeColor=none;fillColor=none;align=left;verticalAlign=middle;spacingLeft=4;spacingRight=4;overflow=hidden;points=[[0,0.5],[1,0.5]];portConstraint=eastwest;rotatable=0;whiteSpace=wrap;html=1;" vertex="1" parent="MNSN4jUZ-0V3lGfAkd76-65">
          <mxGeometry y="120" width="240" height="40" as="geometry" />
        </mxCell>
        <mxCell id="MNSN4jUZ-0V3lGfAkd76-73" value="дата и время покупки&amp;nbsp;" style="text;strokeColor=none;fillColor=none;align=left;verticalAlign=middle;spacingLeft=4;spacingRight=4;overflow=hidden;points=[[0,0.5],[1,0.5]];portConstraint=eastwest;rotatable=0;whiteSpace=wrap;html=1;" vertex="1" parent="MNSN4jUZ-0V3lGfAkd76-65">
          <mxGeometry y="160" width="240" height="40" as="geometry" />
        </mxCell>
        <mxCell id="MNSN4jUZ-0V3lGfAkd76-75" value="количество товаров&amp;nbsp;" style="text;strokeColor=none;fillColor=none;align=left;verticalAlign=middle;spacingLeft=4;spacingRight=4;overflow=hidden;points=[[0,0.5],[1,0.5]];portConstraint=eastwest;rotatable=0;whiteSpace=wrap;html=1;" vertex="1" parent="MNSN4jUZ-0V3lGfAkd76-65">
          <mxGeometry y="200" width="240" height="40" as="geometry" />
        </mxCell>
      </root>
    </mxGraphModel>
  </diagram>
</mxfile>
